<svg width="1600" height="792" viewBox="0 0 1600 792" fill="none" xmlns="http://www.w3.org/2000/svg">
<g opacity="0.7" clip-path="url(#clip0_362_510)">
<g opacity="0.02">
<mask id="mask0_362_510" style="mask-type:luminance" maskUnits="userSpaceOnUse" x="12" y="-457" width="1722" height="1718">
<path fill-rule="evenodd" clip-rule="evenodd" d="M12 -457H1733.53V1260.04H12V-457Z" fill="white"/>
</mask>
<g mask="url(#mask0_362_510)">
<path fill-rule="evenodd" clip-rule="evenodd" d="M1730.86 257.292C1731.4 245.046 1725.7 233.55 1715.63 226.548L746.957 -447.233C739.151 -452.666 729.686 -454.74 720.311 -453.078C710.941 -451.409 702.777 -446.205 697.338 -438.415L21.9846 527.539C18.1112 533.079 15.9061 539.565 15.6123 546.284C15.0781 558.533 20.7727 570.023 30.8394 577.033L999.515 1250.81C1007.33 1256.25 1016.78 1258.32 1026.17 1256.66C1035.53 1254.98 1043.7 1249.79 1049.14 1242L1724.49 276.044C1728.37 270.501 1730.57 264.013 1730.86 257.292M12.5123 546.15C12.8347 538.841 15.2325 531.796 19.4447 525.771L694.79 -440.184C700.709 -448.65 709.58 -454.309 719.77 -456.122C729.959 -457.931 740.243 -455.675 748.733 -449.771L1717.41 224.013C1728.36 231.628 1734.54 244.119 1733.96 257.431C1733.64 264.738 1731.25 271.784 1727.03 277.813L1051.68 1243.76C1045.77 1252.23 1036.9 1257.88 1026.71 1259.7C1016.52 1261.51 1006.24 1259.25 997.742 1253.35L29.07 579.564C18.1235 571.954 11.9302 559.46 12.5123 546.15" fill="#082F49"/>
</g>
<path fill-rule="evenodd" clip-rule="evenodd" d="M1685.86 247.55C1686.38 235.801 1680.97 224.704 1671.4 217.866L735.592 -450.838C728.06 -456.227 718.872 -458.363 709.724 -456.859C700.576 -455.352 692.568 -450.383 687.167 -442.869L16.903 490.3C12.9709 495.781 10.7357 502.216 10.4433 508.914C9.92957 520.666 15.3372 531.764 24.912 538.595L960.715 1207.31C976.28 1218.42 997.998 1214.85 1009.14 1199.34L1679.4 266.165C1683.34 260.688 1685.57 254.247 1685.86 247.55M7.34734 508.775C7.66295 501.481 10.099 494.467 14.385 488.5L684.651 -444.667C690.53 -452.855 699.256 -458.265 709.218 -459.907C719.18 -461.547 729.188 -459.219 737.398 -453.353L1673.2 215.355C1683.63 222.804 1689.52 234.887 1688.96 247.683C1688.64 254.983 1686.21 262 1681.92 267.966L1011.65 1201.13C999.521 1218.03 975.852 1221.93 958.909 1209.82L23.1045 541.112C12.6799 533.664 6.78581 521.577 7.34734 508.775" fill="#082F49"/>
<path fill-rule="evenodd" clip-rule="evenodd" d="M1640.87 237.803C1641.36 226.554 1636.23 215.852 1627.16 209.181L724.229 -454.446C709.235 -465.465 688.052 -462.267 677.003 -447.317L11.8261 453.067C7.82842 458.472 5.56042 464.868 5.26804 471.551C4.77618 482.8 9.90241 493.498 18.9799 500.166L921.905 1163.8C929.175 1169.14 938.083 1171.33 947.005 1169.99C955.929 1168.65 963.79 1163.91 969.14 1156.67L1634.32 256.281C1638.31 250.878 1640.58 244.487 1640.87 237.803M2.17211 471.409C2.49182 464.112 4.96339 457.136 9.32724 451.237L674.508 -449.15C686.569 -465.475 709.697 -468.965 726.065 -456.935L1629 206.692C1638.91 213.979 1644.5 225.662 1643.97 237.941C1643.65 245.238 1641.18 252.214 1636.81 258.119L971.635 1158.5C965.79 1166.41 957.214 1171.58 947.471 1173.04C937.734 1174.51 928.003 1172.12 920.076 1166.29L17.1423 502.659C7.23412 495.374 1.63517 483.695 2.17211 471.409" fill="#082F49"/>
<path fill-rule="evenodd" clip-rule="evenodd" d="M1595.89 228.056C1596.36 217.3 1591.51 207.001 1582.92 200.499L712.863 -458.053C705.869 -463.344 697.234 -465.604 688.54 -464.417C679.852 -463.231 672.14 -458.737 666.839 -451.765L6.7371 415.838C2.67793 421.18 0.375771 427.52 0.084757 434.186C-0.385238 444.94 4.45953 455.238 13.0479 461.741L883.115 1120.29C897.538 1131.2 918.184 1128.39 929.135 1114.01L1589.24 246.405C1593.3 241.067 1595.6 234.723 1595.89 228.056M-3.00845 434.046C-2.69284 426.751 -0.173451 419.804 4.271 413.968L664.368 -453.634C670.174 -461.264 678.61 -466.179 688.12 -467.481C697.632 -468.779 707.082 -466.305 714.736 -460.516L1584.79 198.038C1594.19 205.151 1599.5 216.422 1598.98 228.193C1598.66 235.489 1596.15 242.435 1591.7 248.276L931.605 1115.87C919.62 1131.62 897.027 1134.71 881.237 1122.76L11.1788 464.2C1.77894 457.086 -3.5249 445.821 -3.00845 434.046" fill="#082F49"/>
<path fill-rule="evenodd" clip-rule="evenodd" d="M1550.91 218.313C1551.36 208.044 1546.79 198.139 1538.68 191.813L701.497 -461.663C694.779 -466.904 686.418 -469.226 677.952 -468.196C669.481 -467.167 661.929 -462.913 656.673 -456.214L1.65449 378.605C-2.47572 383.863 -4.8093 390.157 -5.10031 396.812C-5.54981 407.079 -0.976928 416.984 7.12502 423.312L844.31 1076.79C851.032 1082.03 859.388 1084.35 867.858 1083.32C876.324 1082.29 883.881 1078.03 889.14 1071.34L1544.15 236.522C1548.29 231.264 1550.62 224.964 1550.91 218.313M-8.19754 396.674C-7.8751 389.371 -5.31609 382.47 -0.786923 376.691L654.231 -458.12C659.997 -465.467 668.29 -470.136 677.574 -471.263C686.863 -472.393 696.035 -469.848 703.409 -464.094L1540.59 189.38C1549.48 196.318 1554.5 207.185 1554 218.447C1553.69 225.749 1551.12 232.658 1546.6 238.432L891.58 1073.24C885.813 1080.6 877.52 1085.27 868.233 1086.39C858.945 1087.52 849.77 1084.98 842.405 1079.22L5.21371 425.748C-3.6752 418.807 -8.68803 407.939 -8.19754 396.674" fill="#082F49"/>
<path fill-rule="evenodd" clip-rule="evenodd" d="M1505.94 208.568C1506.36 198.786 1502.07 189.279 1494.44 183.132L690.127 -465.269C676.822 -475.994 657.252 -473.928 646.504 -460.662L-3.43623 341.377C-7.6293 346.55 -10.008 352.802 -10.299 359.443C-10.728 369.228 -6.42698 378.732 1.19677 384.88L805.511 1033.28C811.958 1038.48 820.045 1040.86 828.28 1039.99C836.524 1039.11 843.93 1035.1 849.134 1028.67L1499.07 226.641C1503.27 221.46 1505.65 215.208 1505.94 208.568M-13.3936 359.309C-13.0766 352.003 -10.4629 345.13 -5.8436 339.43L644.091 -462.605C655.913 -477.197 677.439 -479.47 692.074 -467.675L1496.39 180.729C1504.78 187.484 1509.5 197.944 1509.03 208.702C1508.72 216.006 1506.1 222.881 1501.49 228.587L851.547 1030.61C845.822 1037.69 837.67 1042.11 828.612 1043.06C819.546 1044.02 810.652 1041.4 803.565 1035.68L-0.75017 387.285C-9.13903 380.526 -13.8649 370.066 -13.3936 359.309" fill="#082F49"/>
<path fill-rule="evenodd" clip-rule="evenodd" d="M1460.97 198.82C1461.39 189.386 1457.46 180.499 1450.2 174.445L678.762 -468.881C672.585 -474.025 664.779 -476.469 656.763 -475.756C648.748 -475.044 641.496 -471.261 636.337 -465.106L-8.51904 304.143C-12.7982 309.247 -15.2124 315.443 -15.5006 322.071C-15.9119 331.51 -11.9798 340.401 -4.72492 346.452L766.718 989.779C779.463 1000.41 798.491 998.713 809.141 986.004L1453.99 216.756C1458.27 211.655 1460.69 205.453 1460.97 198.82M-18.5938 321.933C-18.2782 314.627 -15.6154 307.786 -10.899 302.156L633.956 -467.09C639.649 -473.88 647.647 -478.052 656.487 -478.834C665.325 -479.621 673.942 -476.926 680.749 -471.25L1452.19 172.07C1460.2 178.748 1464.53 188.544 1464.07 198.959C1463.75 206.276 1461.09 213.111 1456.37 218.736L811.519 987.987C799.77 1002 778.782 1003.86 764.726 992.151L-6.71417 348.83C-14.7218 342.151 -19.0529 332.349 -18.5938 321.933" fill="#082F49"/>
<path fill-rule="evenodd" clip-rule="evenodd" d="M1416.02 189.079C1416.41 180.118 1412.75 171.622 1405.96 165.753L667.393 -472.486C661.493 -477.591 653.956 -480.095 646.164 -479.538C638.376 -478.983 631.276 -475.439 626.16 -469.554L-13.6034 266.91C-17.9672 271.932 -20.4238 278.082 -20.7134 284.705C-21.1055 293.664 -17.4357 302.165 -10.6522 308.031L727.916 946.276C733.821 951.374 741.358 953.875 749.147 953.322C756.93 952.771 764.032 949.226 769.145 943.341L1408.91 206.873C1413.28 201.856 1415.74 195.701 1416.02 189.079M-23.8107 284.571C-23.491 277.244 -20.768 270.439 -15.9465 264.889L623.819 -471.578C629.474 -478.088 637.331 -482.009 645.944 -482.621C654.56 -483.236 662.898 -480.467 669.422 -474.826L1407.99 163.416C1415.5 169.908 1419.55 179.309 1419.12 189.214C1418.8 196.537 1416.08 203.344 1411.26 208.903L771.487 945.361C765.838 951.875 757.979 955.795 749.368 956.411C740.753 957.018 732.414 954.254 725.892 948.609L-12.6811 310.365C-20.1887 303.877 -24.2411 294.478 -23.8107 284.571" fill="#082F49"/>
<path fill-rule="evenodd" clip-rule="evenodd" d="M1371.08 179.333C1371.45 170.853 1368.04 162.737 1361.72 157.063L656.018 -476.106C650.393 -481.157 643.128 -483.717 635.567 -483.318C628.008 -482.922 621.052 -479.613 615.992 -473.999L-18.6953 229.683C-23.0824 234.541 -25.6537 240.815 -25.9392 247.336C-26.3068 255.815 -22.8938 263.934 -16.5749 269.602L689.122 902.777C694.746 907.822 702.01 910.387 709.578 909.992C717.132 909.593 724.086 906.285 729.152 900.675L1363.84 196.99C1368.22 192.13 1370.8 185.855 1371.08 179.333M-29.0366 247.204C-28.7169 239.966 -25.8683 233.004 -20.9989 227.617L613.687 -476.066C619.301 -482.291 627.016 -485.966 635.406 -486.407C643.795 -486.848 651.852 -484.003 658.096 -478.401L1363.79 154.77C1370.8 161.058 1374.59 170.062 1374.18 179.469C1373.86 186.706 1371.01 193.659 1366.14 199.058L731.455 902.742C725.841 908.962 718.127 912.639 709.738 913.079C701.353 913.52 693.292 910.68 687.05 905.071L-18.6489 271.897C-25.6619 265.612 -29.4438 256.607 -29.0366 247.204" fill="#082F49"/>
<path fill-rule="evenodd" clip-rule="evenodd" d="M1326.15 169.588C1326.5 161.579 1323.34 153.847 1317.48 148.371L644.651 -479.718C639.294 -484.721 632.3 -487.344 624.97 -487.101C617.636 -486.859 610.832 -483.785 605.815 -478.44L-23.7852 192.455C-28.2639 197.226 -30.8871 203.447 -31.1726 209.971C-31.521 217.981 -28.3595 225.712 -22.5023 231.186L650.327 859.273C661.384 869.602 678.808 869.031 689.16 858.002L1318.77 187.104C1323.24 182.331 1325.87 176.112 1326.15 169.588M-34.27 209.837C-33.9503 202.577 -31.0306 195.652 -26.0505 190.343L603.554 -480.552C609.134 -486.5 616.7 -489.922 624.862 -490.19C633.026 -490.458 640.805 -487.542 646.769 -481.973L1319.59 146.119C1326.12 152.208 1329.64 160.81 1329.25 169.724C1328.93 176.981 1326.01 183.903 1321.03 189.219L691.42 860.116C679.901 872.389 660.512 873.024 648.209 861.531L-24.6173 233.441C-31.1399 227.353 -34.6566 218.744 -34.27 209.837" fill="#082F49"/>
<path fill-rule="evenodd" clip-rule="evenodd" d="M1281.23 159.843C1281.56 152.304 1278.64 144.952 1273.23 139.682L633.281 -483.337C622.775 -493.56 605.888 -493.357 595.639 -482.883L-28.8818 155.229C-33.4588 159.899 -36.1394 166.076 -36.4223 172.596C-36.7543 180.144 -33.8359 187.491 -28.4214 192.762L611.528 815.783C622.036 826.003 638.918 825.794 649.165 815.326L1273.69 177.218C1278.26 172.541 1280.94 166.368 1281.23 159.843M-39.5169 172.458C-39.2012 165.178 -36.2078 158.288 -31.0993 153.066L593.424 -485.046C604.868 -496.737 623.715 -496.962 635.441 -485.546L1275.39 137.469C1281.44 143.352 1284.69 151.558 1284.33 159.981C1284.01 167.264 1281.02 174.157 1275.91 179.378L651.382 817.486C639.941 829.178 621.092 829.408 609.363 817.99L-30.5829 194.97C-36.6286 189.088 -39.8844 180.882 -39.5169 172.458" fill="#082F49"/>
<path fill-rule="evenodd" clip-rule="evenodd" d="M1236.32 150.099C1236.64 143.014 1233.96 136.051 1228.99 130.992L621.906 -486.953C611.958 -497.075 595.612 -497.244 585.463 -487.329L-33.9746 117.996C-38.6568 122.574 -41.3975 128.692 -41.6858 135.23C-41.9932 142.314 -39.3126 149.277 -34.3421 154.341L572.73 772.289C582.682 782.411 599.025 782.574 609.178 772.651L1228.62 167.332C1233.3 162.755 1236.04 156.633 1236.32 150.099M-44.7817 135.093C-44.4606 127.776 -41.3879 120.92 -36.1428 115.789L583.293 -489.538C594.664 -500.646 612.975 -500.456 624.118 -489.117L1231.2 128.825C1236.77 134.495 1239.77 142.298 1239.42 150.233C1239.1 157.556 1236.03 164.409 1230.78 169.54L611.349 774.868C599.986 785.974 581.665 785.787 570.523 774.45L-36.5582 156.51C-42.1271 150.835 -45.1274 143.027 -44.7817 135.093" fill="#082F49"/>
<path fill-rule="evenodd" clip-rule="evenodd" d="M1191.43 140.356C1191.73 133.626 1189.35 127.209 1184.74 122.286L610.528 -490.572C605.987 -495.425 599.812 -498.226 593.159 -498.451C586.5 -498.677 580.152 -496.302 575.285 -491.769L-39.0662 80.7722C-43.8686 85.2467 -46.6681 91.3129 -46.955 97.8601C-47.2487 104.589 -44.8742 111.006 -40.2644 115.929L533.946 728.788C543.335 738.809 559.143 739.339 569.192 729.983L1183.55 157.441C1188.35 152.97 1191.15 146.901 1191.43 140.356M-50.0523 97.7193C-49.7299 90.3565 -46.5834 83.5457 -41.1907 78.5179L573.169 -494.027C578.641 -499.128 585.774 -501.794 593.264 -501.539C600.747 -501.286 607.682 -498.14 612.8 -492.683L1187 120.178C1192.19 125.711 1194.86 132.927 1194.53 140.492C1194.21 147.853 1191.06 154.676 1185.66 159.7L571.305 732.245C560.017 742.764 542.237 742.167 531.68 730.905L-42.5269 118.038C-47.7078 112.501 -50.3857 105.293 -50.0523 97.7193" fill="#082F49"/>
<path fill-rule="evenodd" clip-rule="evenodd" d="M1146.56 130.612C1146.83 124.33 1144.68 118.291 1140.49 113.592L599.156 -494.194C590.321 -504.111 575.044 -505.017 565.101 -496.212L-44.1723 43.5514C-49.0949 47.9098 -51.9627 53.9227 -52.2483 60.4876C-52.5215 66.7642 -50.3683 72.814 -46.1821 77.5113L495.154 685.298C503.988 695.218 519.258 696.124 529.21 687.312L1138.48 147.553C1143.4 143.193 1146.27 137.175 1146.56 130.612M-55.3469 60.3523C-55.0217 52.9512 -51.7823 46.1595 -46.2257 41.2396L563.043 -498.523C574.263 -508.46 591.502 -507.44 601.473 -496.249L1142.81 111.541C1147.53 116.84 1149.97 123.661 1149.66 130.748C1149.33 138.156 1146.09 144.942 1140.54 149.864L531.267 689.633C520.043 699.562 502.803 698.545 492.831 687.35L-48.5005 79.5701C-53.2237 74.2636 -55.6557 67.4404 -55.3469 60.3523" fill="#082F49"/>
<path fill-rule="evenodd" clip-rule="evenodd" d="M1101.7 120.871C1101.96 115.037 1100.02 109.359 1096.25 104.887L587.782 -497.82C583.774 -502.574 578.144 -505.488 571.94 -506.02C565.73 -506.554 559.684 -504.648 554.919 -500.648L-49.2716 6.33177C-54.2517 10.5084 -57.2684 16.6266 -57.5539 23.1177C-57.808 28.953 -55.8748 34.6271 -52.1012 39.103L456.362 641.812C464.64 651.624 479.386 652.892 489.226 644.635L1093.42 137.664C1098.4 133.484 1101.42 127.362 1101.7 120.871M-60.6526 22.9838C-60.3301 15.6251 -56.909 8.69541 -51.2704 3.96541L552.921 -503.014C558.326 -507.543 565.17 -509.707 572.204 -509.101C579.237 -508.496 585.611 -505.195 590.154 -499.81L1098.61 102.899C1102.89 107.967 1105.08 114.396 1104.8 121.004C1104.48 128.36 1101.05 135.293 1095.41 140.03L491.22 647.003C480.072 656.358 463.368 654.919 453.992 643.802L-54.4689 41.0881C-58.7453 36.0234 -60.9408 29.5938 -60.6526 22.9838" fill="#082F49"/>
<path fill-rule="evenodd" clip-rule="evenodd" d="M1056.86 111.129C1057.09 105.726 1055.37 100.421 1052 96.183L576.403 -501.445C572.658 -506.149 567.302 -509.121 561.318 -509.808C555.336 -510.497 549.446 -508.819 544.734 -505.089L-54.3793 -30.8932C-59.4987 -26.8409 -62.5974 -20.7774 -62.8843 -14.2508C-63.1166 -8.85677 -61.391 -3.55018 -58.0204 0.693439L417.566 598.325C425.297 608.039 439.505 609.671 449.245 601.963L1048.35 127.775C1053.47 123.721 1056.58 117.651 1056.86 111.129M-65.9817 -14.3901C-65.662 -21.8075 -62.1316 -28.7031 -56.3017 -33.3169L542.802 -507.51C548.168 -511.755 554.868 -513.663 561.673 -512.88C568.478 -512.097 574.572 -508.719 578.832 -503.366L1054.42 94.2634C1058.26 99.0822 1060.22 105.122 1059.95 111.265C1059.63 118.683 1056.11 125.584 1050.28 130.192L451.164 604.388C440.103 613.151 423.934 611.293 415.143 600.247L-60.4497 2.61987C-64.2821 -2.20987 -66.2495 -8.24874 -65.9817 -14.3901" fill="#082F49"/>
<path fill-rule="evenodd" clip-rule="evenodd" d="M1012.04 101.391C1012.26 96.4166 1010.73 91.4762 1007.75 87.4744L565.025 -505.078C557.846 -514.684 544.171 -516.681 534.534 -509.525L-59.4801 -68.1143C-64.758 -64.1972 -67.9496 -58.187 -68.2352 -51.6303C-68.4497 -46.6571 -66.9222 -41.7195 -63.9383 -37.7109L378.784 554.846C385.96 564.451 399.636 566.444 409.266 559.289L1003.29 117.881C1008.57 113.962 1011.75 107.953 1012.04 101.391M-71.3324 -51.7642C-71.0058 -59.2595 -67.3579 -66.1196 -61.334 -70.6009L532.685 -512.004C543.687 -520.18 559.312 -517.899 567.512 -506.924L1010.23 85.63C1013.64 90.1974 1015.39 95.8428 1015.14 101.526C1014.81 109.02 1011.17 115.883 1005.14 120.363L411.121 561.766C400.117 569.94 384.497 567.657 376.297 556.69L-66.4234 -35.865C-69.8349 -40.4379 -71.5797 -46.0833 -71.3324 -51.7642" fill="#082F49"/>
<path fill-rule="evenodd" clip-rule="evenodd" d="M967.246 91.6554C967.445 87.0319 966.152 82.5751 963.497 78.766L553.649 -508.712C547.02 -518.216 533.875 -520.57 524.343 -513.963L-64.5973 -105.337C-70.0337 -101.563 -73.3182 -95.613 -73.6065 -89.0057C-73.806 -84.3823 -72.508 -79.9283 -69.852 -76.1219L339.99 511.363C346.619 520.873 359.763 523.224 369.297 516.611L958.24 107.989C963.676 104.218 966.956 98.2599 967.246 91.6554M-76.701 -89.1424C-76.3718 -96.7183 -72.6022 -103.55 -66.3625 -107.877L522.572 -516.499C533.507 -524.08 548.587 -521.38 556.191 -510.479L966.038 77.0007C969.085 81.37 970.576 86.4812 970.341 91.7878C970.012 99.3678 966.246 106.198 960.014 110.527L371.065 519.154C360.135 526.735 345.052 524.034 337.449 513.133L-72.3959 -74.3499C-75.4454 -78.7178 -76.9333 -83.8304 -76.701 -89.1424" fill="#082F49"/>
<path fill-rule="evenodd" clip-rule="evenodd" d="M922.48 81.9191C922.664 77.7069 921.549 73.6054 919.244 70.0518L542.27 -512.354C536.186 -521.747 523.572 -524.461 514.147 -518.398L-69.7106 -142.562C-75.2412 -138.996 -78.7184 -132.949 -79.0026 -126.38C-79.1857 -122.171 -78.0653 -118.072 -75.7632 -114.518L301.207 467.894C307.289 477.284 319.903 479.996 329.329 473.93L913.189 98.093C918.717 94.5325 922.189 88.4868 922.48 81.9191M-82.0984 -126.517C-81.7678 -134.088 -77.7633 -141.055 -71.3896 -145.155L512.467 -520.995C523.323 -527.985 537.863 -524.856 544.874 -514.027L921.846 68.3754C924.499 72.4701 925.787 77.2001 925.576 82.0531C925.246 89.6209 921.243 96.5915 914.866 100.689L331.009 476.529C320.153 483.516 305.613 480.393 298.604 469.567L-78.374 -112.835C-81.0191 -116.935 -82.3115 -121.662 -82.0984 -126.517" fill="#082F49"/>
<path fill-rule="evenodd" clip-rule="evenodd" d="M877.734 72.1793C877.902 68.377 876.951 64.6238 874.994 61.3339L530.895 -515.995C525.352 -525.286 513.264 -528.356 503.947 -522.835L-74.8253 -179.78C-80.5472 -176.391 -84.1391 -170.399 -84.4287 -163.761C-84.5954 -159.953 -83.6445 -156.203 -81.6839 -152.909L262.416 424.418C267.958 433.712 280.044 436.782 289.358 431.255L868.137 88.2015C873.859 84.8104 877.444 78.8221 877.734 72.1793M-87.5233 -163.896C-87.1872 -171.583 -83.0351 -178.515 -76.4128 -182.436L502.36 -525.493C513.15 -531.886 527.144 -528.331 533.553 -517.573L877.653 59.7503C879.927 63.5636 881.022 67.9042 880.833 72.32C880.496 80.0052 876.342 86.9349 869.721 90.8629L290.943 433.918C280.159 440.307 266.163 436.756 259.752 425.999L-84.3495 -151.329C-86.6188 -155.138 -87.7159 -159.489 -87.5233 -163.896" fill="#082F49"/>
<path fill-rule="evenodd" clip-rule="evenodd" d="M833.025 62.4527C833.174 59.037 832.387 55.6309 830.738 52.6101L519.511 -519.64C514.514 -528.829 502.955 -532.253 493.737 -527.27L-79.9531 -217.004C-85.8772 -213.798 -89.5893 -207.871 -89.8831 -201.145C-90.0334 -197.728 -89.2451 -194.323 -87.6001 -191.299L223.631 380.951C228.628 390.139 240.187 393.564 249.404 388.58L823.095 78.3082C829.021 75.1043 832.733 69.1802 833.025 62.4527M-92.979 -201.277C-92.6429 -208.982 -88.2189 -216.045 -81.4286 -219.716L492.263 -529.988C502.978 -535.781 516.426 -531.8 522.239 -521.111L833.467 51.1359C835.379 54.6568 836.292 58.6094 836.124 62.5879C835.784 70.2895 831.357 77.3558 824.576 81.0297L250.88 391.3C240.164 397.094 226.718 393.113 220.904 382.421L-90.3202 -189.825C-92.2344 -193.346 -93.1539 -197.304 -92.979 -201.277" fill="#082F49"/>
<mask id="mask1_362_510" style="mask-type:luminance" maskUnits="userSpaceOnUse" x="-89" y="-541" width="891" height="888">
<path fill-rule="evenodd" clip-rule="evenodd" d="M-88.9258 -540.756H801.035V346.766H-88.9258V-540.756Z" fill="white"/>
</mask>
<g mask="url(#mask1_362_510)">
<path fill-rule="evenodd" clip-rule="evenodd" d="M788.354 52.7221C788.485 49.6863 787.84 46.6313 786.486 43.8824L508.132 -523.291C503.679 -532.375 492.641 -536.153 483.532 -531.708L-85.0807 -254.22C-91.1373 -251.265 -95.0776 -245.252 -95.3714 -238.53C-95.5039 -235.491 -94.8631 -232.434 -93.5119 -229.683L184.842 337.49C189.303 346.571 200.335 350.349 209.445 345.902L778.058 68.4205C784.11 65.4625 788.057 59.4482 788.354 52.7221M-98.4701 -238.665C-98.1271 -246.521 -93.516 -253.548 -86.4469 -256.996L482.166 -534.486C492.809 -539.676 505.71 -535.266 510.92 -524.65L789.279 42.5229C790.853 45.735 791.606 49.3078 791.451 52.8587C791.107 60.7161 786.5 67.7441 779.42 71.1939L210.808 348.678C200.162 353.877 187.268 349.465 182.058 338.848L-96.3018 -228.328C-97.8771 -231.535 -98.6258 -235.113 -98.4701 -238.665" fill="#082F49"/>
</g>
</g>
</g>
<defs>
<clipPath id="clip0_362_510">
<rect width="1600" height="792" fill="white"/>
</clipPath>
</defs>
</svg>
