<svg width="899" height="899" viewBox="0 0 899 899" fill="none" xmlns="http://www.w3.org/2000/svg">
<path d="M861.058 0.5H37.9473C17.2841 0.5 0.533203 17.2613 0.533203 37.9375V861.563C0.533203 882.239 17.2841 899 37.9473 899H480.15V551.054H363.132V415.452H480.15V315.45C480.15 199.398 550.987 136.206 654.448 136.206C704.007 136.206 746.601 139.898 759.014 141.548V262.829L687.258 262.862C630.99 262.862 620.095 289.616 620.095 328.877V415.452H754.289L736.816 551.054H620.095V899H861.058C881.721 899 898.472 882.239 898.472 861.563V37.9375C898.472 17.2613 881.721 0.5 861.058 0.5Z" fill="white"/>
</svg>
