<svg width="899" height="899" viewBox="0 0 899 899" fill="none" xmlns="http://www.w3.org/2000/svg">
<path fill-rule="evenodd" clip-rule="evenodd" d="M264.398 3.1955C312.288 1.02413 327.572 0.5 449.505 0.5C571.437 0.5 586.721 1.02413 634.611 3.1955C707.606 6.52744 771.677 24.4226 823.122 75.8991C874.585 127.394 892.45 191.525 895.78 264.528C897.95 312.448 898.474 327.741 898.474 449.75C898.474 571.759 897.95 587.052 895.78 634.972C892.45 708.013 874.566 772.124 823.122 823.601C771.659 875.096 707.55 892.973 634.611 896.305C586.721 898.476 571.437 899 449.505 899C327.572 899 312.288 898.476 264.398 896.305C191.403 892.973 127.332 875.077 75.8872 823.601C24.4241 772.106 6.55883 707.975 3.22897 634.972C1.05895 587.052 0.535156 571.759 0.535156 449.75C0.535156 327.741 1.05895 312.448 3.22897 264.528C6.55883 191.487 24.4428 127.376 75.8872 75.8991C127.35 24.4038 191.441 6.52744 264.398 3.1955ZM630.947 84.0651C583.599 81.8937 569.401 81.4445 449.526 81.4445C329.651 81.4445 315.452 81.9125 268.105 84.0651C217.016 86.405 169.593 96.6441 133.115 133.146C96.636 169.647 86.4032 217.099 84.0648 268.22C81.8948 315.597 81.4458 329.805 81.4458 449.755C81.4458 569.704 81.9135 583.912 84.0648 631.289C86.4032 682.41 96.636 729.862 133.115 766.364C169.593 802.865 217.016 813.104 268.105 815.444C315.434 817.615 329.632 818.065 449.526 818.065C569.419 818.065 583.618 817.597 630.947 815.444C682.036 813.104 729.458 802.865 765.937 766.364C802.416 729.862 812.649 682.41 814.987 631.289C817.157 583.912 817.606 569.704 817.606 449.755C817.606 329.805 817.138 315.597 814.987 268.22C812.649 217.099 802.416 169.647 765.937 133.146C729.458 96.6441 682.036 86.405 630.947 84.0651Z" fill="white"/>
<path fill-rule="evenodd" clip-rule="evenodd" d="M245.383 470.173C245.383 346.123 345.876 245.548 469.868 245.548C593.859 245.548 694.352 346.104 694.352 470.173C694.352 594.242 593.859 694.798 469.868 694.798C345.876 694.798 245.383 594.224 245.383 470.173ZM324.171 470.169C324.171 550.694 389.418 615.982 469.893 615.982C550.368 615.982 615.615 550.694 615.615 470.169C615.615 389.644 550.368 324.356 469.893 324.356C389.418 324.356 324.171 389.644 324.171 470.169Z" fill="white"/>
<ellipse cx="674.022" cy="225.127" rx="61.2231" ry="61.2614" fill="white"/>
</svg>
