<svg width="899" height="899" viewBox="0 0 899 899" fill="none" xmlns="http://www.w3.org/2000/svg">
<path fill-rule="evenodd" clip-rule="evenodd" d="M37.7422 0.5H860.853C881.431 0.5 898.267 17.3469 898.267 37.9375V861.563C898.267 882.153 881.431 899 860.853 899H37.7422C17.1645 899 0.328125 882.153 0.328125 861.563V37.9375C0.328125 17.3469 17.1645 0.5 37.7422 0.5ZM133.141 766.097H265.961V337.438H133.141V766.097ZM200.512 279.41C157.485 279.41 123.813 245.716 123.813 202.663C123.813 159.61 157.485 125.916 200.512 125.916C243.538 125.916 277.211 159.61 277.211 202.663C277.211 243.844 243.538 279.41 200.512 279.41ZM632.58 766.095H763.53V530.239C763.53 414.182 739.211 326.204 604.52 326.204C540.916 326.204 496.019 361.77 479.182 395.464H477.312V337.435H350.104V766.095H482.924V554.573C482.924 498.417 494.148 444.132 563.364 444.132C632.58 444.132 632.58 507.776 632.58 558.317V766.095Z" fill="white"/>
</svg>
