<svg width="897" height="897" viewBox="0 0 897 897" fill="none" xmlns="http://www.w3.org/2000/svg">
<path d="M0 897L63.3525 666.658C24.2595 599.233 3.71778 522.801 3.75534 444.426C3.868 199.396 204.215 0 450.378 0C569.835 0.037375 681.969 46.345 766.314 130.364C850.622 214.383 897.038 326.06 897 444.837C896.887 689.905 696.54 889.301 450.378 889.301C375.646 889.263 302.004 870.613 236.774 835.182L0 897ZM247.74 754.713C310.679 791.902 370.764 814.177 450.227 814.214C654.818 814.214 821.48 648.494 821.593 444.762C821.668 240.62 655.795 75.1237 450.528 75.049C245.787 75.049 79.2376 240.77 79.1625 444.464C79.125 527.623 103.61 589.89 144.731 655.034L107.215 791.378L247.74 754.713ZM675.36 550.496C672.581 545.862 665.145 543.096 653.955 537.527C642.801 531.958 587.936 505.086 577.684 501.386C567.469 497.685 560.033 495.817 552.56 506.955C545.125 518.055 523.719 543.096 517.223 550.496C510.726 557.897 504.192 558.831 493.038 553.262C481.885 547.693 445.909 535.995 403.286 498.134C370.126 468.683 347.707 432.317 341.21 421.179C334.713 410.079 340.534 404.061 346.092 398.53C351.124 393.559 357.245 385.561 362.841 379.057C368.511 372.629 370.351 367.994 374.107 360.557C377.825 353.156 375.984 346.653 373.168 341.084C370.351 335.553 348.045 280.873 338.769 258.635C329.681 236.995 320.481 239.91 313.646 239.574L292.24 239.2C284.805 239.2 272.713 241.966 262.498 253.103C252.284 264.241 223.443 291.077 223.443 345.756C223.443 400.436 263.437 453.247 268.995 460.647C274.59 468.047 347.669 580.247 459.616 628.349C486.241 639.785 507.046 646.625 523.231 651.745C549.969 660.192 574.304 658.996 593.531 656.155C614.974 652.979 659.55 629.283 668.863 603.345C678.176 577.369 678.176 555.131 675.36 550.496Z" fill="white"/>
</svg>
